<?xml version="1.0" standalone="no"?>
<!DOCTYPE svg PUBLIC "-//W3C//DTD SVG 20010904//EN"
 "http://www.w3.org/TR/2001/REC-SVG-20010904/DTD/svg10.dtd">
<svg version="1.0" xmlns="http://www.w3.org/2000/svg"
 width="1500.000000pt" height="1500.000000pt" viewBox="0 0 1500.000000 1500.000000"
 preserveAspectRatio="xMidYMid meet">
<metadata>
Created by potrace 1.16, written by Peter Selinger 2001-2019
</metadata>
<g transform="translate(0.000000,1500.000000) scale(0.100000,-0.100000)"
fill="#000000" stroke="none">
<path d="M8115 13664 c-671 -41 -1145 -242 -1565 -665 -187 -188 -316 -359
-560 -744 -153 -241 -206 -318 -269 -394 -61 -73 -93 -91 -164 -91 -132 0
-277 95 -599 393 -60 55 -108 95 -108 90 0 -20 171 -234 255 -317 111 -112
205 -183 311 -237 121 -61 201 -54 299 25 33 28 58 68 128 209 260 522 685
990 1162 1280 639 387 1437 482 2091 249 599 -214 1089 -712 1478 -1502 101
-204 175 -377 291 -679 71 -184 96 -238 117 -254 33 -25 122 -34 169 -18 19 6
81 54 139 106 171 154 301 311 420 505 63 103 56 96 -44 -37 -43 -57 -121
-147 -174 -200 -113 -114 -299 -269 -349 -289 -61 -26 -158 5 -169 54 -90 385
-188 670 -330 953 -451 903 -1149 1435 -2029 1544 -116 15 -398 25 -500 19z"/>
<path d="M4226 12636 c-84 -64 -133 -128 -149 -197 -6 -24 -4 -26 18 -21 88
16 154 -89 163 -260 2 -54 8 -98 13 -98 21 0 80 66 96 108 15 40 18 78 18 249
0 189 -1 203 -21 230 -33 44 -68 41 -138 -11z"/>
<path d="M6813 12431 c-229 -83 -380 -252 -438 -491 -29 -119 -42 -115 120
-34 218 109 334 127 517 80 272 -71 465 -170 604 -310 38 -39 79 -84 91 -101
l21 -30 -227 0 c-371 -1 -591 -46 -856 -176 -103 -50 -312 -186 -302 -195 2
-2 39 10 83 26 117 44 274 88 382 106 144 25 341 16 447 -20 152 -52 281 -147
387 -288 57 -75 114 -168 104 -168 -3 0 -40 23 -82 51 -154 104 -333 179 -494
209 -90 17 -270 15 -358 -4 -128 -28 -255 -87 -380 -176 -51 -37 -62 -41 -112
-40 -30 1 -59 1 -65 0 -5 0 41 -21 104 -45 l114 -44 73 69 c40 38 97 83 126
100 61 35 166 70 210 70 l30 0 -37 -41 c-59 -66 -79 -120 -79 -219 -1 -47 3
-102 7 -122 7 -33 13 -39 61 -57 138 -51 361 -66 405 -27 10 9 31 44 45 77 42
92 36 211 -15 311 -10 20 -19 40 -19 43 0 14 46 1 117 -35 133 -66 243 -191
243 -274 0 -23 -4 -46 -8 -52 -12 -19 -107 -63 -199 -91 -83 -25 -100 -27
-278 -27 -181 0 -196 1 -305 31 -63 17 -158 49 -209 72 -107 46 -133 48 -45 3
85 -42 236 -97 329 -118 220 -51 766 3 961 96 36 18 118 74 182 126 175 142
278 183 419 170 l63 -5 -14 33 c-38 91 -135 209 -257 313 l-89 76 0 91 c0 50
-3 115 -7 145 l-6 53 -198 158 c-492 394 -756 571 -990 664 -102 41 -106 42
-176 17z m156 -1738 c64 -43 144 -54 216 -28 21 8 41 12 44 9 8 -8 -54 -66
-86 -80 -106 -46 -236 31 -250 148 l-6 43 24 -35 c14 -19 40 -45 58 -57z"/>
<path d="M4335 11981 c-28 -10 -99 -48 -158 -86 -108 -68 -271 -135 -329 -135
-47 0 -31 -17 46 -49 99 -41 172 -57 351 -76 320 -34 455 -64 600 -135 253
-123 406 -291 421 -462 11 -112 -59 -349 -197 -673 -77 -181 -88 -203 -81
-156 6 43 -34 81 -86 81 -68 0 -163 -37 -277 -106 -213 -130 -364 -174 -600
-176 -235 -1 -448 46 -799 177 l-178 66 -43 -21 c-28 -14 -55 -38 -75 -68 -52
-79 -56 -106 -36 -255 10 -73 20 -142 23 -154 6 -25 8 -24 -222 -43 -658 -53
-1293 -243 -1900 -568 -141 -75 -375 -212 -375 -219 0 -2 4 -2 8 1 17 10 617
242 768 296 599 215 1003 275 1283 188 276 -85 443 -306 506 -672 11 -63 15
-158 15 -325 0 -732 -96 -1548 -291 -2476 -112 -532 -194 -863 -490 -1974
-121 -454 -259 -979 -306 -1166 -98 -392 -101 -432 -49 -539 76 -155 321 -334
566 -414 116 -38 399 -111 645 -166 841 -189 1647 -292 2561 -326 347 -13 477
3 666 81 180 74 342 211 432 367 190 328 331 861 416 1582 31 262 37 422 17
490 -27 93 -85 178 -193 286 l-101 100 66 -24 c265 -96 737 -155 1058 -132
264 19 390 54 637 177 l148 74 -7 -74 c-23 -253 179 -1063 438 -1752 123 -325
356 -832 424 -922 55 -72 198 -145 317 -162 151 -22 1171 72 1786 165 529 79
1317 236 1399 278 59 31 116 116 145 216 50 177 82 818 66 1350 -22 725 -79
1299 -280 2825 -120 905 -142 1106 -164 1470 -28 451 -39 864 -27 959 25 183
79 304 186 411 85 85 177 136 313 172 90 25 112 27 302 27 218 0 306 -10 528
-60 96 -21 275 -69 367 -99 41 -13 -104 60 -210 105 -392 169 -924 283 -1423
307 -134 6 -143 7 -147 27 -2 12 -14 75 -25 141 -39 223 -107 459 -142 492
-32 30 -71 43 -126 43 -54 0 -56 -1 -217 -131 -225 -181 -356 -255 -499 -280
-126 -22 -271 8 -405 84 -42 24 -57 28 -71 20 -15 -10 -22 3 -60 123 -52 163
-53 224 -1 321 68 128 260 312 389 374 113 54 173 67 385 79 225 13 326 35
450 97 l49 24 -74 38 c-41 20 -126 73 -189 118 -159 113 -185 125 -233 112
-51 -14 -420 -322 -586 -488 -192 -192 -256 -287 -281 -410 -17 -89 -6 -185
41 -343 78 -263 133 -523 160 -753 18 -149 24 -525 11 -690 -24 -292 -52 -476
-172 -1110 -80 -421 -104 -504 -213 -728 -126 -259 -292 -520 -475 -747 -455
-564 -906 -977 -1409 -1288 -298 -185 -645 -358 -796 -397 -327 -84 -812 -80
-1192 10 -270 64 -622 237 -837 413 -117 95 -195 189 -357 432 -587 881 -872
1496 -1065 2302 -123 512 -108 1284 41 2056 52 275 82 358 259 732 199 419
246 573 246 798 -1 298 -112 433 -589 722 -85 51 -188 118 -230 148 -83 59
-145 92 -177 91 -11 0 -43 -8 -70 -18z"/>
<path d="M12096 11903 c-3 -10 -1 -56 4 -103 5 -47 10 -137 10 -200 0 -131 10
-176 46 -220 26 -30 111 -86 119 -78 2 2 -1 24 -6 48 -6 25 -9 80 -7 122 4 66
10 85 37 130 32 50 32 53 18 84 -17 35 -137 189 -169 217 -11 9 -26 17 -33 17
-8 0 -16 -8 -19 -17z"/>
<path d="M10340 11678 c-312 -174 -900 -402 -1348 -524 l-144 -39 4 -156 3
-156 55 -51 c33 -29 97 -111 155 -198 112 -166 196 -257 311 -333 151 -101
381 -198 563 -236 79 -16 369 -40 379 -31 3 3 -10 6 -29 6 -125 0 -360 57
-529 127 -95 40 -324 162 -317 169 2 2 39 -12 83 -31 109 -47 249 -83 378 -96
138 -15 305 1 466 43 63 17 140 36 170 42 54 12 55 13 25 23 -23 7 -47 4 -108
-13 -179 -52 -285 -69 -442 -69 -159 0 -236 13 -358 59 -87 33 -209 96 -292
151 l-70 46 48 -6 c43 -6 48 -4 47 12 -8 69 36 118 154 174 44 21 82 36 83 35
2 -2 -9 -29 -23 -62 -23 -51 -27 -73 -28 -159 l-1 -100 75 -37 c93 -47 167
-66 286 -74 92 -7 93 -7 118 21 38 41 66 125 66 200 0 73 -24 146 -70 215 -16
24 -28 46 -26 47 2 2 43 -11 92 -28 223 -78 322 -160 354 -290 l12 -46 51 -7
c29 -3 70 -6 92 -5 l40 0 -47 15 c-29 9 -52 23 -59 37 -53 101 -209 242 -332
301 -133 64 -212 80 -387 81 -168 0 -250 -13 -415 -65 l-90 -29 69 65 c49 46
96 78 160 109 143 69 222 86 431 94 l179 6 -69 47 c-85 58 -164 91 -270 113
-44 9 -81 17 -82 19 -1 1 134 50 300 110 166 59 338 120 382 136 101 36 129
31 267 -47 54 -30 101 -54 103 -51 7 7 -61 143 -111 221 -71 112 -224 257
-268 257 -6 0 -45 -19 -86 -42z"/>
<path d="M7260 10129 c-19 -12 -105 -93 -190 -180 -238 -244 -279 -261 -580
-239 -223 17 -322 11 -380 -21 -37 -20 -56 -43 -111 -134 -36 -60 -118 -179
-181 -265 -187 -252 -253 -349 -311 -460 -99 -189 -148 -370 -146 -545 l1 -80
21 50 c191 449 440 756 735 904 164 83 337 120 592 128 353 11 592 -54 940
-257 326 -190 487 -258 665 -279 200 -24 351 12 725 171 365 156 474 188 642
188 258 0 457 -130 652 -425 29 -44 108 -177 176 -295 110 -193 231 -383 249
-395 4 -2 4 22 0 53 -4 31 -12 131 -19 222 -13 195 -32 318 -64 404 -60 168
-121 219 -396 339 -264 115 -303 153 -350 338 -24 93 -52 163 -69 174 -9 5
-10 -12 -5 -67 8 -90 -9 -178 -41 -215 l-23 -27 -75 71 c-91 84 -121 95 -236
82 -77 -9 -154 -33 -375 -118 -194 -76 -239 -84 -436 -85 -146 -1 -193 3 -285
22 -211 45 -365 111 -468 203 -32 28 -98 105 -148 170 -101 133 -165 194 -245
234 -72 36 -129 31 -260 -25 -53 -22 -99 -38 -103 -35 -3 4 -6 43 -6 88 0 94
22 152 100 263 24 35 43 64 42 64 -1 0 -18 -10 -37 -21z"/>
<path d="M6539 8510 c-116 -18 -602 -152 -627 -173 -25 -20 -9 -49 38 -67 24
-9 48 -24 52 -31 4 -8 35 -122 69 -254 135 -527 271 -862 474 -1165 133 -197
280 -352 446 -466 64 -44 68 -45 105 -35 84 23 117 15 195 -50 64 -53 85 -59
207 -59 89 0 112 -3 140 -20 28 -17 34 -27 34 -50 0 -3 -3 -15 -7 -27 -10 -37
32 -29 72 12 38 39 59 42 142 20 45 -12 59 -12 85 -1 18 7 57 16 89 20 66 9
78 -3 53 -51 l-15 -30 62 9 c296 39 601 174 871 385 251 195 435 388 876 916
198 237 218 259 257 268 44 12 78 40 71 60 -10 31 -763 236 -1043 283 -132 23
-219 31 -595 57 -349 23 -482 56 -1005 249 -460 169 -586 200 -825 205 -91 2
-190 0 -221 -5z m936 -329 c89 -40 162 -149 202 -300 2 -9 34 16 87 67 82 81
84 82 134 82 110 0 334 -57 352 -90 5 -10 13 -72 16 -137 4 -65 10 -127 15
-138 8 -20 8 -20 8 1 1 27 35 124 62 180 14 27 32 47 48 52 29 10 153 -6 311
-38 165 -35 173 -38 183 -85 11 -57 -8 -257 -33 -338 -33 -107 -25 -105 -300
-50 -290 58 -286 55 -284 175 l2 83 -8 -62 c-16 -117 -45 -142 -165 -142 -120
-1 -330 42 -392 80 -42 26 -73 92 -73 155 0 46 -1 47 -13 24 -7 -14 -33 -36
-57 -50 -81 -44 -257 -30 -312 25 -39 39 -63 126 -63 230 0 79 4 97 28 145 36
69 71 108 122 131 50 23 79 23 130 0z m-524 -44 c41 -21 70 -43 82 -65 18 -31
19 -41 8 -146 -11 -117 -39 -216 -68 -248 -17 -19 -78 -25 -88 -8 -3 6 -17 80
-30 165 -14 85 -32 184 -41 220 -17 66 -17 66 6 90 31 33 56 31 131 -8z m2237
-372 c79 -13 150 -29 158 -36 10 -8 13 -22 9 -43 -4 -17 -9 -42 -12 -56 -2
-14 7 -1 21 28 14 29 34 56 46 60 27 10 231 -5 244 -18 25 -25 -66 -224 -115
-250 -32 -18 -81 -14 -127 9 -52 27 -72 55 -73 106 l0 40 -13 -40 c-18 -57
-42 -91 -84 -117 -29 -18 -49 -21 -118 -20 -101 1 -150 21 -170 68 -48 115 -7
294 69 294 12 0 87 -11 165 -25z m-1987 -814 c208 -84 430 -139 709 -178 101
-14 203 -17 527 -17 l402 -1 30 -29 c49 -47 43 -86 -21 -166 -143 -176 -199
-209 -373 -217 -205 -10 -656 80 -962 192 -116 43 -377 168 -457 219 -92 59
-118 125 -76 194 20 32 48 50 81 51 9 1 72 -21 140 -48z"/>
<path d="M9070 5710 c-70 -12 -104 -30 -272 -143 -468 -315 -862 -405 -1342
-306 -101 21 -339 96 -451 142 -33 14 -62 24 -64 22 -8 -9 99 -145 171 -216
194 -193 455 -311 771 -350 138 -17 448 -6 604 20 256 44 576 140 769 232 183
87 247 240 169 407 -64 137 -211 217 -355 192z"/>
</g>
</svg>
